<svg width="48" height="40" viewBox="0 0 48 40" fill="none" xmlns="http://www.w3.org/2000/svg">
<rect width="48" height="40" rx="10" fill="#FFEFE9"/>
<path d="M27.8196 28.0838C27.8346 27.9564 27.8225 27.8272 27.7839 27.7047C27.7454 27.5823 27.6814 27.4694 27.5961 27.3735C27.5108 27.2776 27.4062 27.2008 27.2891 27.1483C27.172 27.0957 27.0451 27.0685 26.9168 27.0685C26.7884 27.0685 26.6615 27.0957 26.5444 27.1483C26.4273 27.2008 26.3227 27.2776 26.2374 27.3735C26.1521 27.4694 26.0881 27.5823 26.0496 27.7047C26.0111 27.8272 25.9989 27.9564 26.0139 28.0838C26.0399 28.305 26.1462 28.509 26.3127 28.657C26.4791 28.805 26.6941 28.8867 26.9168 28.8867C27.1395 28.8867 27.3544 28.805 27.5209 28.657C27.6873 28.509 27.7936 28.305 27.8196 28.0838Z" fill="#FF666C" stroke="#FF666C" stroke-width="1.5" stroke-linecap="round" stroke-linejoin="round"/>
<path d="M18.4037 28.0841C18.4037 27.9648 18.3801 27.8465 18.3345 27.7362C18.2888 27.626 18.2218 27.5257 18.1374 27.4413C18.053 27.3569 17.9528 27.2899 17.8425 27.2443C17.7322 27.1986 17.614 27.175 17.4946 27.175C17.3752 27.175 17.257 27.1986 17.1467 27.2443C17.0364 27.2899 16.9362 27.3569 16.8517 27.4413C16.7673 27.5257 16.7004 27.626 16.6547 27.7362C16.609 27.8465 16.5855 27.9648 16.5855 28.0841C16.5855 28.2035 16.609 28.3217 16.6547 28.432C16.7004 28.5423 16.7673 28.6425 16.8517 28.727C16.9362 28.8114 17.0364 28.8783 17.1467 28.924C17.257 28.9697 17.3752 28.9932 17.4946 28.9932C17.614 28.9932 17.7322 28.9697 17.8425 28.924C17.9528 28.8783 18.053 28.8114 18.1374 28.727C18.2218 28.6425 18.2888 28.5423 18.3345 28.432C18.3801 28.3217 18.4037 28.2035 18.4037 28.0841Z" fill="#FF666C" stroke="#FF666C" stroke-width="1.5" stroke-linecap="round" stroke-linejoin="round"/>
<path d="M15.4744 24.6945H28.3246L30.7347 11.0069H34" stroke="#FF666C" stroke-width="1.5" stroke-linecap="round" stroke-linejoin="round"/>
<path d="M29.9239 13.4316H14.3749C14.3198 13.421 14.2633 13.421 14.2083 13.4316L14.0084 13.5768C13.9985 13.6285 13.9985 13.6816 14.0084 13.7333C13.9973 13.7923 13.9973 13.853 14.0084 13.912L15.4522 21.186C15.4681 21.2777 15.5159 21.3607 15.5872 21.4201C15.6584 21.4795 15.7484 21.5114 15.8409 21.51H28.3246" stroke="#FF666C" stroke-width="1.5" stroke-linecap="round" stroke-linejoin="round"/>
</svg>
