<svg width="17" height="16" viewBox="0 0 17 16" fill="none" xmlns="http://www.w3.org/2000/svg">
<path d="M4.75002 3.00002C4.75002 1.71136 5.79469 0.666687 7.08335 0.666687C7.73625 0.666687 8.32651 0.934843 8.75002 1.36703C9.17353 0.934843 9.76379 0.666687 10.4167 0.666687C11.7054 0.666687 12.75 1.71136 12.75 3.00002C12.75 3.35789 12.6695 3.69694 12.5255 4.00002H14.4167C15.3372 4.00002 16.0834 4.74621 16.0834 5.66669C16.0834 6.58716 15.3372 7.33335 14.4167 7.33335H9.41669V4.00002H10.4167C10.969 4.00002 11.4167 3.55231 11.4167 3.00002C11.4167 2.44774 10.969 2.00002 10.4167 2.00002C9.8644 2.00002 9.41669 2.44774 9.41669 3.00002V4.00002H8.08335V3.00002C8.08335 2.44774 7.63564 2.00002 7.08335 2.00002C6.53107 2.00002 6.08335 2.44774 6.08335 3.00002C6.08335 3.55231 6.53107 4.00002 7.08335 4.00002H8.08335V7.33335H3.08335C2.16288 7.33335 1.41669 6.58716 1.41669 5.66669C1.41669 4.74621 2.16288 4.00002 3.08335 4.00002H4.97456C4.83058 3.69694 4.75002 3.35789 4.75002 3.00002Z" fill="#D92D20"/>
<path d="M3.41669 8.66669H8.08335L8.08335 14.6667H6.58914C6.0525 14.6667 5.6096 14.6667 5.2488 14.6372C4.87407 14.6066 4.5296 14.5409 4.20605 14.376C3.70428 14.1204 3.29633 13.7124 3.04067 13.2107C2.87581 12.8871 2.8101 12.5426 2.77948 12.1679C2.75001 11.8071 2.75001 11.3642 2.75002 10.8276V9.33335C2.75002 8.96516 3.0485 8.66669 3.41669 8.66669Z" fill="#D92D20"/>
<path d="M9.41669 8.66669L9.41669 14.6667H10.9109C11.4475 14.6667 11.8904 14.6667 12.2512 14.6372C12.626 14.6066 12.9704 14.5409 13.294 14.376C13.7958 14.1204 14.2037 13.7124 14.4594 13.2107C14.6242 12.8871 14.6899 12.5426 14.7206 12.1679C14.75 11.8071 14.75 11.3642 14.75 10.8276V9.33335C14.75 8.96516 14.4515 8.66669 14.0834 8.66669H9.41669Z" fill="#D92D20"/>
</svg>
