<svg width="133" height="42" viewBox="0 0 133 42" fill="none" xmlns="http://www.w3.org/2000/svg">
<path d="M23.1309 7.62301C20.06 7.62301 17.8689 9.6451 16.8806 12.456C16.0532 9.54244 14.1303 7.62301 11.032 7.62301C8.49393 7.62301 6.46374 8.96024 5.26207 11.3917V8.30787H0V27.3046H5.26207V15.9869C6.22412 13.7933 7.50565 12.6614 9.18894 12.6614C11.1381 12.6614 12.1001 14.135 12.1001 16.5015V27.3046H17.3622L17.3348 23.7738V16.0558C18.2968 13.827 19.6058 12.6614 21.2879 12.6614C23.2382 12.6614 24.1991 14.135 24.1991 16.5015V27.3046H29.4349V16.1285C29.4349 11.2565 27.4047 7.62301 23.1309 7.62301Z" fill="#DF1C24"/>
<path d="M36.267 6.73165C37.9644 6.73165 39.3404 5.22472 39.3404 3.36583C39.3404 1.50693 37.9644 0 36.267 0C34.5697 0 33.1937 1.50693 33.1937 3.36583C33.1937 5.22472 34.5697 6.73165 36.267 6.73165Z" fill="#DF1C24"/>
<path d="M39.3657 8.30943H33.1678V27.2997H39.3657V8.30943Z" fill="#DF1C24"/>
<path d="M52.1014 15.0618C49.6111 14.8903 48.0482 14.685 48.0482 13.5531C48.0482 12.3835 49.9294 12.0794 51.5447 12.0794C54.0077 12.0794 55.9949 12.7993 57.4779 13.965L59.7025 10.1262C57.7688 8.61738 54.8553 7.51926 51.677 7.51926C46.2218 7.51926 43.1759 10.1599 43.1759 14.0326C43.1759 18.3523 47.2542 19.8611 51.4923 20.2379C54.2199 20.4432 55.4644 20.8552 55.4644 21.952C55.4644 23.0826 54.0875 23.4946 52.0216 23.4946C48.922 23.4946 46.4591 22.3965 44.8688 20.8955L42.5918 24.5628C44.659 26.5459 47.9433 28.0846 51.863 28.0846C57.5852 28.0846 60.3379 25.067 60.3379 21.3269C60.3379 17.1528 56.7627 15.4036 52.1014 15.0618Z" fill="#DF1C24"/>
<path d="M85.7225 8.30943L82.4143 20.4433L78.9333 8.30943H73.9288L70.4489 20.4433L67.1408 8.30943H61.676L67.3136 27.2997H72.7497L76.4024 14.685L80.0277 27.2997H85.434L91.1002 8.30943H85.7225Z" fill="#DF1C24"/>
<path d="M109.638 16.6405C109.638 10.7795 106.194 7.55666 100.425 7.55666C97.8023 7.55666 94.6837 8.27661 92.6333 9.50598L93.8659 13.7919C95.7245 12.6223 97.5019 12.3169 99.3056 12.3169C102.615 12.3169 104.313 13.6892 104.313 16.569V17.8023C103.165 16.2597 101.059 15.094 98.3805 15.094C95.182 15.094 91.1085 16.6717 91.1085 21.5385C91.1085 26.4053 95.182 27.9829 98.3805 27.9829C101.059 27.9829 103.165 26.8133 104.313 25.3098V25.3435C104.337 26.03 104.515 26.6994 104.832 27.2929H110.299C109.836 26.1948 109.644 25.0641 109.644 23.6931L109.638 16.6405ZM104.416 21.7087C103.378 23.5593 101.463 24.0401 99.9053 24.0401C98.3746 24.0401 96.3289 23.5593 96.3289 21.5372C96.3289 19.5151 98.3793 19.0343 99.9053 19.0343C101.463 19.0343 103.378 19.5151 104.416 21.3319V21.7087Z" fill="#DF1C24"/>
<path d="M126.149 29.3672H119.628C116.148 29.3672 115.86 28.4757 116.181 27.6635C116.288 27.3932 116.71 26.928 117.029 26.5602C118.547 27.6191 120.313 28.1806 122.116 28.1781C127.361 28.1781 131.617 23.5192 131.617 17.7726C131.619 16.1794 131.285 14.6071 130.641 13.1768C129.997 11.7465 129.06 10.4965 127.903 9.52313L127.105 17.7506L126.828 20.7876C126.816 20.9248 126.757 21.0521 126.663 21.1448C126.57 21.2374 126.448 21.2889 126.321 21.2892H117.817C117.689 21.2891 117.566 21.2369 117.472 21.1428C117.378 21.0487 117.32 20.9197 117.309 20.7811L116.826 14.863C116.819 14.7861 116.828 14.7085 116.85 14.6352C116.873 14.562 116.909 14.4946 116.956 14.4375C117.004 14.3804 117.062 14.3347 117.127 14.3035C117.192 14.2722 117.262 14.2561 117.333 14.2561H125.558L126.132 8.34055C124.875 7.69783 123.504 7.36589 122.116 7.36848C116.87 7.36848 112.614 12.0261 112.614 17.7726C112.611 20.4981 113.589 23.1161 115.338 25.0631C114.799 25.8861 114.329 26.7603 113.933 27.6752C112.902 30.2834 112.791 34.0027 116.398 34.0027H126.697C127.597 34.0027 128.094 34.3588 128.094 35.0904C128.094 35.7285 127.597 36.1781 126.697 36.1781H113.488L112.128 41.9975H126.151C126.747 42.0131 128.695 41.9754 130.223 40.4484C132.436 38.2392 132.708 33.9507 130.674 31.4257C129.054 29.4192 126.646 29.3659 126.149 29.3672Z" fill="#DF1C24"/>
<path d="M126.326 6.0849L126.125 8.33831L132.388 8.3487L132.999 6.0849H126.326Z" fill="#DF1C24"/>
</svg>
