<svg width="24" height="24" viewBox="0 0 24 24" fill="none" xmlns="http://www.w3.org/2000/svg">
<path d="M9.93579 21.4999L16.0736 9.19766L22.2247 21.4866M11.7678 17.8093H20.3794H11.7678Z" stroke="#24273B" stroke-width="1.5" stroke-linecap="round" stroke-linejoin="round"/>
<path d="M4.78194 15.8971C3.41799 15.9104 2.25463 15.1884 1.89358 14.1587C1.5994 13.3296 1.9337 12.5407 2.04067 12.2465C2.12091 11.9791 2.25463 11.7651 2.38835 11.5779C2.80288 11.0564 3.45811 10.7756 4.12671 10.7756L13.2999 10.8023" stroke="#24273B" stroke-width="1.5" stroke-miterlimit="10" stroke-linecap="round"/>
<path d="M12.8853 2.52526C11.722 2.43165 10.826 2.61886 10.2911 2.77933C9.66266 2.96653 9.2615 3.19386 9.14115 3.26072C8.84696 3.43456 8.36557 3.71537 7.93767 4.25025C7.48302 4.81188 7.32255 5.36013 7.17546 5.8549C6.98825 6.49675 6.96151 6.99152 6.92139 7.68687C6.88127 8.31535 6.92139 8.71651 6.94813 9.17116C7.01499 10.0938 7.13534 10.2944 7.25569 10.4415C7.54988 10.7624 7.99115 10.8026 8.24522 10.8026C10.0237 10.8026 13.0592 10.8427 13.2999 10.8293" stroke="#24273B" stroke-width="1.5" stroke-miterlimit="10" stroke-linecap="round"/>
</svg>
