<svg width="17" height="16" viewBox="0 0 17 16" fill="none" xmlns="http://www.w3.org/2000/svg">
<path fill-rule="evenodd" clip-rule="evenodd" d="M6.69035 2H9.80979C10.3452 1.99999 10.7839 1.99999 11.1441 2.02709C11.5183 2.05525 11.8553 2.1151 12.1792 2.25931C12.6927 2.48792 13.1317 2.8562 13.4461 3.32218C13.6444 3.61613 13.7619 3.93761 13.8546 4.30122C13.9439 4.65121 14.0202 5.08324 14.1132 5.61048L14.6949 8.90663C14.8422 9.74121 14.9602 10.4103 15.0082 10.9535C15.0573 11.5094 15.0411 12.0048 14.8707 12.4731C14.6027 13.2096 14.0838 13.8281 13.4051 14.22C12.9735 14.4692 12.4885 14.5712 11.9325 14.6195C11.3893 14.6667 10.7098 14.6667 9.86238 14.6667H6.63776C5.79032 14.6667 5.11088 14.6667 4.56765 14.6195C4.01168 14.5712 3.52661 14.4692 3.09507 14.22C2.41635 13.8281 1.89742 13.2096 1.62944 12.4731C1.45906 12.0048 1.44288 11.5094 1.49195 10.9535C1.53989 10.4103 1.65797 9.74124 1.80525 8.9067L2.38694 5.61048C2.47997 5.08324 2.55621 4.65121 2.64549 4.30122C2.73825 3.93761 2.85576 3.61613 3.05408 3.32218C3.36845 2.8562 3.80741 2.48792 4.32093 2.25931C4.64487 2.1151 4.98188 2.05525 5.35608 2.02709C5.71626 1.99999 6.15496 1.99999 6.69035 2ZM6.91667 5.33333C6.91667 4.96514 6.61819 4.66667 6.25 4.66667C5.88181 4.66667 5.58333 4.96514 5.58333 5.33333C5.58333 6.80609 6.77724 8 8.25 8C9.72276 8 10.9167 6.80609 10.9167 5.33333C10.9167 4.96514 10.6182 4.66667 10.25 4.66667C9.88181 4.66667 9.58333 4.96514 9.58333 5.33333C9.58333 6.06971 8.98638 6.66667 8.25 6.66667C7.51362 6.66667 6.91667 6.06971 6.91667 5.33333Z" fill="#FCFCFC"/>
</svg>
