<svg width="21" height="20" viewBox="0 0 21 20" fill="none" xmlns="http://www.w3.org/2000/svg">
<path d="M11.4893 10.4699V7.96992M11.4893 7.96992V5.46992M11.4893 7.96992H8.9893M11.4893 7.96992H13.9893M1.91736 2.49954H2.9379C3.75797 2.49954 4.168 2.49954 4.49797 2.65034C4.78875 2.78323 5.03518 2.99696 5.20786 3.26603C5.40381 3.57136 5.46179 3.97727 5.57777 4.78908L6.59028 11.8767C6.70626 12.6885 6.76424 13.0945 6.96019 13.3998C7.13288 13.6688 7.3793 13.8825 7.67008 14.0155C8.00005 14.1662 8.41008 14.1662 9.23015 14.1662H12.1438C13.8319 14.1662 14.6759 14.1662 15.3478 13.8515C15.9397 13.5743 16.437 13.1291 16.7779 12.5715C17.1649 11.9385 17.2581 11.0997 17.4444 9.42214C17.4694 9.19843 17.4946 8.97133 17.5204 8.73858C17.6007 8.01603 17.5944 7.35631 17.5944 7.35631M8.58403 17.4995C8.58403 17.9598 8.21093 18.3329 7.75069 18.3329C7.29045 18.3329 6.91736 17.9598 6.91736 17.4995C6.91736 17.0393 7.29045 16.6662 7.75069 16.6662C8.21093 16.6662 8.58403 17.0393 8.58403 17.4995ZM16.084 17.4995C16.084 17.9598 15.7109 18.3329 15.2507 18.3329C14.7905 18.3329 14.4174 17.9598 14.4174 17.4995C14.4174 17.0393 14.7905 16.6662 15.2507 16.6662C15.7109 16.6662 16.084 17.0393 16.084 17.4995Z" stroke="#767676" stroke-width="2" stroke-linecap="round" stroke-linejoin="round"/>
</svg>
