<svg width="17" height="16" viewBox="0 0 17 16" fill="none" xmlns="http://www.w3.org/2000/svg">
<path d="M9.27803 1.61095C8.64273 1.24081 7.85748 1.24081 7.22218 1.61095C6.88092 1.80978 6.64703 2.14098 6.45016 2.48028C6.25046 2.82444 6.03041 3.28561 5.76068 3.8509L5.74781 3.87786C5.56551 4.2599 5.52284 4.33662 5.47515 4.39217C5.40311 4.47608 5.31243 4.54197 5.21037 4.58455C5.1428 4.61274 5.05664 4.62961 4.63697 4.68493L4.60734 4.68884C3.98637 4.77069 3.47978 4.83746 3.09075 4.92103C2.70722 5.00341 2.31996 5.12351 2.0254 5.38663C1.47706 5.87646 1.23441 6.62327 1.39011 7.34186C1.47375 7.72786 1.71647 8.05265 1.97832 8.34473C2.24393 8.641 2.61451 8.99277 3.06876 9.42397L3.09046 9.44458C3.39747 9.73601 3.45726 9.8003 3.49535 9.86282C3.55289 9.95727 3.58753 10.0639 3.59649 10.1741C3.60242 10.2471 3.59184 10.3342 3.51477 10.7505L3.50933 10.7798C3.39528 11.3957 3.30224 11.8981 3.2615 12.2939C3.22134 12.6842 3.21589 13.0896 3.37511 13.451C3.67151 14.1239 4.30679 14.5855 5.03832 14.6594C5.43128 14.6992 5.81517 14.5687 6.17388 14.4099C6.53773 14.2489 6.98681 14.0051 7.5373 13.7063L7.56356 13.6921C7.9356 13.4902 8.01522 13.4532 8.08646 13.4363C8.19406 13.4107 8.30615 13.4107 8.41375 13.4363C8.48499 13.4532 8.5646 13.4902 8.93664 13.6921L8.9629 13.7063C9.51336 14.0051 9.96249 14.2489 10.3263 14.4099C10.685 14.5687 11.0689 14.6992 11.4619 14.6594C12.1934 14.5855 12.8287 14.1239 13.1251 13.451C13.2843 13.0896 13.2789 12.6842 13.2387 12.2939C13.198 11.8981 13.1049 11.3957 12.9909 10.7799L12.9854 10.7505C12.9084 10.3342 12.8978 10.2471 12.9037 10.1741C12.9127 10.0639 12.9473 9.95727 13.0049 9.86282C13.043 9.8003 13.1027 9.73601 13.4097 9.44458L13.4314 9.42406C13.8857 8.99282 14.2563 8.64102 14.5219 8.34473C14.7837 8.05265 15.0265 7.72786 15.1101 7.34186C15.2658 6.62327 15.0231 5.87646 14.4748 5.38663C14.1803 5.12351 13.793 5.00341 13.4095 4.92103C13.0204 4.83746 12.5138 4.77069 11.8929 4.68884L11.8632 4.68493C11.4436 4.62961 11.3574 4.61274 11.2898 4.58455C11.1878 4.54197 11.0971 4.47608 11.0251 4.39217C10.9774 4.33662 10.9347 4.2599 10.7524 3.87786L10.7395 3.85089C10.4698 3.28561 10.2497 2.82444 10.0501 2.48028C9.85318 2.14098 9.61929 1.80978 9.27803 1.61095Z" fill="#FDB022"/>
</svg>
