<svg width="16" height="16" viewBox="0 0 16 16" fill="none" xmlns="http://www.w3.org/2000/svg">
<path d="M11.2988 1.25C13.566 1.25 15.25 3.50212 15.25 5.7832C15.25 6.49806 14.9154 7.35802 14.2969 8.30762C13.6873 9.24345 12.8533 10.1894 11.9746 11.0586C10.2412 12.7731 8.4084 14.1161 8 14.4092C7.59168 14.1162 5.7588 12.7732 4.02539 11.0586C3.14666 10.1894 2.31274 9.24346 1.70312 8.30762C1.08456 7.35802 0.75002 6.49806 0.75 5.7832C0.75 3.50206 2.43411 1.25 4.70117 1.25C6.0582 1.25011 6.90285 1.92977 7.41211 2.57129L8 3.31152L8.58691 2.57129C9.09649 1.92954 9.94218 1.25001 11.2988 1.25Z" stroke="#24273B" stroke-width="1.5"/>
</svg>
